<svg width="45" height="40" viewBox="0 0 45 40" fill="none" xmlns="http://www.w3.org/2000/svg">
<path d="M1.2799 33.4216C1.14564 33.5805 1.00548 33.8517 1.00015 34.2351C0.996791 34.4742 1.04893 34.6958 1.10976 34.8751C1.41585 35.7798 1.9291 35.9271 2.39217 35.9774C2.82329 36.024 3.26674 36.0342 3.67123 35.6435C3.81951 35.4999 3.97733 35.244 3.99779 34.8365C4.01825 34.4334 3.89324 34.0791 3.76177 33.859C3.55967 33.52 3.32365 33.3428 3.08734 33.2298C2.54635 32.9703 1.79371 32.8129 1.2799 33.4216Z" fill="#D9ED45" stroke="black" stroke-linecap="round" stroke-linejoin="round"/>
<path d="M2.92749 32.5827C3.25274 30.5391 3.96217 28.5629 5.00335 26.7999" stroke="black" stroke-linecap="round" stroke-linejoin="round"/>
<path d="M24.0257 4.28134C24.0257 4.28134 18.0568 -1.6517 10.6199 2.43809C3.18291 6.52787 4.15285 14.3822 7.65144 19.4874C7.65144 19.4874 1.47834 29.0325 10.1673 34.6344C18.8562 40.2363 25 35.5 25 35.5C25 35.5 33.2467 39.2737 38.5131 35.0725C44.0074 30.6892 44.3605 26.048 40.0949 19.0864C40.0949 19.0864 46.1415 11.1436 39.4435 4.23216C32.7455 -2.67923 24.0257 4.28134 24.0257 4.28134Z" fill="#D9EA6F" stroke="#231815" stroke-linecap="round" stroke-linejoin="round"/>
<path d="M23.0123 21C22.9439 21 23.1589 21 23.7137 21C24.027 21 24.4178 21 24.7993 21C25.2485 21 25.6983 21 26.0996 21C26.3445 21 26.5762 21 26.7304 21C26.9739 21 26.9913 21 27 21" stroke="#231815" stroke-width="0.9" stroke-linecap="round" stroke-linejoin="round"/>
<path d="M17.9033 32.8642C17.9033 32.8642 19.41 29.1406 22.3344 30.5147C25.2588 31.8888 24.4823 37.031 24.4823 37.031" stroke="black" stroke-linecap="round" stroke-linejoin="round"/>
<path d="M23.3732 37.281C23.1942 37.387 23.0073 37.5678 23.0002 37.8234C22.9957 37.9828 23.0652 38.1305 23.1463 38.2501C23.5545 38.8532 24.2388 38.9514 24.8562 38.9849C25.4311 39.016 26.0223 39.0228 26.5616 38.7623C26.7594 38.6666 26.9698 38.496 26.9971 38.2243C27.0243 37.9556 26.8576 37.7194 26.6824 37.5726C26.4129 37.3467 26.0982 37.2286 25.7831 37.1532C25.0618 36.9802 24.0583 36.8752 23.3732 37.281Z" fill="#D9ED45" stroke="black" stroke-width="0.8" stroke-linecap="round" stroke-linejoin="round"/>
<path d="M40.3732 37.281C40.1942 37.387 40.0073 37.5678 40.0002 37.8234C39.9957 37.9828 40.0652 38.1305 40.1463 38.2501C40.5545 38.8532 41.2388 38.9514 41.8562 38.9849C42.4311 39.016 43.0223 39.0228 43.5616 38.7623C43.7594 38.6666 43.9698 38.496 43.9971 38.2243C44.0243 37.9556 43.8576 37.7194 43.6824 37.5726C43.4129 37.3467 43.0982 37.2286 42.7831 37.1532C42.0618 36.9802 41.0583 36.8752 40.3732 37.281Z" fill="#D9ED45" stroke="black" stroke-linecap="round" stroke-linejoin="round"/>
<path d="M33.5564 27.5466L36.4717 31.9768L37.4435 33.4535" stroke="#8E9D3A"/>
<path d="M11 6L14.75 9.75L16 11" stroke="#8E9D3A"/>
<path d="M37.5688 5.58765L33.5068 8.99721L32.1528 10.1337" stroke="#8E9D3A"/>
<path d="M16.7112 27.7538L13.4821 31.9607L12.4058 33.363" stroke="#8E9D3A"/>
<path d="M35.1035 32.8642C35.1035 32.8642 36.6436 29.1406 39.633 30.5147C42.6224 31.8888 41.8287 37.031 41.8287 37.031" stroke="black" stroke-linecap="round" stroke-linejoin="round"/>
<path d="M30.804 15.0317C30.0172 14.9646 29.1834 14.9986 28.4292 15.1869C27.4706 15.426 26.3112 16.0002 26.0538 17.056C25.7428 18.3307 26.834 19.3979 27.9454 19.7182C28.3761 19.8423 28.8239 19.8927 29.2698 19.9318C30.6774 20.0543 33.0215 20.1863 33.7879 18.6454C34.3781 17.4589 33.664 15.9873 32.5407 15.4531C32.1066 15.2468 31.6211 15.1268 31.1462 15.0679C31.0333 15.054 30.9192 15.0414 30.804 15.0317Z" fill="white"/>
<path d="M29.1508 16.2965C28.904 17.124 28.9577 18.1007 29.3301 18.8765C29.6429 19.5277 30.3091 20.0244 31.0689 19.9991C31.9189 19.9707 32.5379 19.3086 32.8201 18.5669C33.2918 17.3266 32.7972 15.6977 31.7888 15.1835C30.2762 14.6693 29.4488 15.2983 29.1508 16.2965Z" fill="#231815"/>
<path d="M19.804 15.0317C19.0172 14.9646 18.1834 14.9986 17.4292 15.1869C16.4706 15.426 15.3112 16.0002 15.0538 17.056C14.7428 18.3307 15.834 19.3979 16.9454 19.7182C17.3761 19.8423 17.8239 19.8927 18.2698 19.9318C19.6774 20.0543 22.0215 20.1863 22.7879 18.6454C23.3781 17.4589 22.664 15.9873 21.5407 15.4531C21.1066 15.2468 20.6211 15.1268 20.1462 15.0679C20.0333 15.054 19.9192 15.0414 19.804 15.0317Z" fill="white"/>
<path d="M18.1508 16.2965C17.904 17.124 17.9577 18.1007 18.3301 18.8765C18.6429 19.5277 19.3091 20.0244 20.0689 19.9991C20.9189 19.9707 21.5379 19.3086 21.8201 18.5669C22.2918 17.3266 21.7972 15.6977 20.7888 15.1835C19.2762 14.6693 18.4488 15.2983 18.1508 16.2965Z" fill="#231815"/>
<circle cx="20.5" cy="18.5" r="0.5" fill="white"/>
<circle cx="19.5" cy="17.5" r="0.5" fill="white"/>
<circle cx="31.5" cy="18.5" r="0.5" fill="white"/>
<circle cx="30.5" cy="17.5" r="0.5" fill="white"/>
<path d="M18.5 22.5C18.5 23.8807 17.3807 25 16 25C14.6193 25 13.5 23.8807 13.5 22.5C13.5 21.1193 14.6193 20 16 20C17.3807 20 18.5 21.1193 18.5 22.5Z" fill="#FFC9C9" fill-opacity="0.5"/>
<path d="M36 22.5C36 23.8807 34.8807 25 33.5 25C32.1193 25 31 23.8807 31 22.5C31 21.1193 32.1193 20 33.5 20C34.8807 20 36 21.1193 36 22.5Z" fill="#FFC9C9" fill-opacity="0.5"/>
</svg>
