<svg width="609" height="444" viewBox="0 0 609 444" fill="none" xmlns="http://www.w3.org/2000/svg">
<path d="M547.914 164.166L504 208Z" fill="#E9FF75"/>
<path d="M547.914 164.166L504 208" stroke="#E9FF75" stroke-width="7" stroke-linecap="round" stroke-linejoin="round"/>
<path d="M600.203 117.9L592.119 141.709C591.84 142.259 591.694 142.868 591.694 143.485C591.694 144.102 591.84 144.71 592.119 145.261L607.229 165.421C607.663 165.998 607.926 166.685 607.986 167.404C608.047 168.123 607.904 168.845 607.572 169.486C607.241 170.127 606.734 170.662 606.113 171.03C605.49 171.398 604.777 171.583 604.053 171.565H578.837C578.219 171.583 577.613 171.739 577.063 172.021C576.514 172.304 576.034 172.705 575.661 173.197L561.61 193.357C561.197 193.946 560.628 194.408 559.966 194.691C559.303 194.973 558.575 195.065 557.863 194.955C557.151 194.845 556.484 194.538 555.939 194.069C555.393 193.599 554.99 192.987 554.776 192.301L547.269 168.301C547.098 167.708 546.779 167.167 546.341 166.731C545.903 166.294 545.362 165.976 544.767 165.805L520.706 158.317C520.018 158.103 519.404 157.702 518.934 157.157C518.463 156.613 518.156 155.948 518.045 155.238C517.935 154.528 518.027 153.801 518.31 153.141C518.593 152.48 519.056 151.912 519.647 151.501L540.243 137.005C540.736 136.632 541.139 136.154 541.422 135.606C541.705 135.058 541.861 134.453 541.88 133.836V108.684C541.906 108.024 542.104 107.381 542.453 106.819C542.802 106.257 543.29 105.794 543.871 105.475C544.452 105.157 545.105 104.993 545.768 105C546.431 105.007 547.08 105.185 547.654 105.516L567.866 120.588C568.379 120.944 568.969 121.173 569.588 121.256C570.207 121.34 570.837 121.275 571.426 121.068L595.295 113.004C595.979 112.764 596.718 112.722 597.426 112.883C598.133 113.043 598.781 113.4 599.294 113.912C599.807 114.424 600.165 115.07 600.325 115.775C600.486 116.481 600.444 117.218 600.203 117.9Z" fill="#E9FF75" stroke="black" stroke-linecap="round" stroke-linejoin="round"/>
<path d="M417.747 418.212C410.79 404.17 386.305 407.411 374.932 410.786C358.876 439.14 374.932 437.79 374.932 439.14C374.932 440.49 426.444 435.765 417.747 418.212Z" fill="#D9EA6F"/>
<path d="M349.51 344.627C357.984 352.503 374.932 376.761 374.932 410.786M374.932 410.786C386.305 407.411 410.79 404.17 417.747 418.212C426.444 435.765 374.932 440.49 374.932 439.14C374.932 437.79 358.876 439.14 374.932 410.786Z" stroke="black" stroke-width="0.8"/>
<path d="M246.505 421.856C239.548 407.814 215.063 411.054 203.69 414.43C187.634 442.784 203.69 441.433 203.69 442.784C203.69 444.134 255.202 439.408 246.505 421.856Z" fill="#D9EA6F"/>
<path d="M178.268 348.27C186.742 356.146 203.69 380.405 203.69 414.43M203.69 414.43C215.063 411.054 239.548 407.814 246.505 421.856C255.202 439.408 203.69 444.134 203.69 442.784C203.69 441.433 187.634 442.784 203.69 414.43Z" stroke="black" stroke-width="0.8"/>
<path d="M24.0001 260.662C40.4072 246.365 59.4597 235.204 79.7513 228" stroke="black" stroke-width="0.8" stroke-linecap="round" stroke-linejoin="round"/>
<path d="M499.751 214C483.344 228.297 464.292 239.458 444 246.662" stroke="black" stroke-width="0.8" stroke-linecap="round" stroke-linejoin="round"/>
<path d="M3.9436 257.433C2.53157 259.105 1.05763 261.956 1.00162 265.989C0.966247 268.503 1.51455 270.834 2.15424 272.72C5.37332 282.234 10.7709 283.782 15.6408 284.311C20.1746 284.802 24.8382 284.909 29.092 280.8C30.6514 279.29 32.311 276.599 32.5262 272.314C32.7414 268.074 31.4267 264.348 30.0441 262.033C27.9187 258.468 25.4366 256.605 22.9515 255.417C17.2621 252.688 9.34707 251.032 3.9436 257.433Z" fill="#D9EA6F" stroke="black" stroke-width="0.8" stroke-linecap="round" stroke-linejoin="round"/>
<path d="M252.149 35.0324C252.149 35.0324 189.377 -27.3624 111.167 15.6478C32.956 58.658 43.1564 141.258 79.9492 194.947C79.9492 194.947 15.03 295.328 106.407 354.24C197.785 413.153 262.395 363.343 262.395 363.343C262.395 363.343 349.122 403.03 404.506 358.847C462.286 312.751 466 263.941 421.141 190.73C421.141 190.73 484.729 107.199 414.29 34.5152C343.851 -38.1685 252.149 35.0324 252.149 35.0324Z" fill="#D9EA6F" stroke="#231815" stroke-linecap="round" stroke-linejoin="round"/>
<path d="M251.879 210.854C253.176 214.243 261.924 231.881 267.654 231.887C274.402 231.894 287.936 216.112 293.945 210.854" stroke="#231815" stroke-width="3" stroke-linecap="round" stroke-linejoin="round"/>
<path d="M486.944 202.433C485.532 204.105 484.058 206.956 484.002 210.989C483.966 213.503 484.515 215.834 485.154 217.72C488.373 227.234 493.771 228.782 498.641 229.311C503.175 229.802 507.838 229.909 512.092 225.8C513.651 224.29 515.311 221.599 515.526 217.314C515.741 213.074 514.427 209.348 513.044 207.033C510.919 203.468 508.437 201.605 505.952 200.417C500.262 197.688 492.347 196.032 486.944 202.433Z" fill="#D9EA6F" stroke="black" stroke-width="0.8" stroke-linecap="round" stroke-linejoin="round"/>
<path d="M189 226.5C189 241.136 177.136 253 162.5 253C147.864 253 136 241.136 136 226.5C136 211.864 147.864 200 162.5 200C177.136 200 189 211.864 189 226.5Z" fill="#FFC9C9" fill-opacity="0.69"/>
<path d="M399 226.5C399 241.136 387.359 253 373 253C358.641 253 347 241.136 347 226.5C347 211.864 358.641 200 373 200C387.359 200 399 211.864 399 226.5Z" fill="#FFC9C9" fill-opacity="0.69"/>
<path d="M208 108C215.034 108 222.334 110 229 110" stroke="black" stroke-width="3" stroke-linecap="round"/>
<path d="M309 111H332" stroke="black" stroke-width="3" stroke-linecap="round"/>
<path d="M213.413 137.584C204.212 136.852 194.461 137.223 185.64 139.279C174.429 141.889 160.87 148.156 157.86 159.681C154.222 173.595 166.984 185.243 179.982 188.74C185.02 190.094 190.256 190.644 195.471 191.071C211.932 192.408 239.347 193.849 248.311 177.029C255.212 164.078 246.862 148.015 233.724 142.184C228.648 139.932 222.969 138.622 217.416 137.98C216.096 137.828 214.761 137.691 213.413 137.584Z" fill="white"/>
<path d="M200.883 150.873C198.286 159.575 198.851 169.847 202.768 178.006C206.058 184.854 213.063 190.078 221.053 189.811C229.993 189.513 236.503 182.55 239.47 174.75C244.431 161.706 239.23 144.576 228.625 139.168C212.718 133.76 204.016 140.375 200.883 150.873Z" fill="black"/>
<circle cx="204.555" cy="174.046" r="5.25825" fill="white"/>
<path d="M339.611 137.584C330.41 136.852 320.659 137.223 311.838 139.279C300.627 141.889 287.068 148.156 284.058 159.681C280.421 173.595 293.182 185.243 306.18 188.74C311.218 190.094 316.454 190.644 321.669 191.071C338.131 192.408 365.545 193.849 374.509 177.029C381.411 164.078 373.06 148.015 359.922 142.184C354.846 139.932 349.168 138.622 343.614 137.98C342.294 137.828 340.96 137.691 339.611 137.584Z" fill="white"/>
<path d="M327.081 150.873C324.485 159.575 325.05 169.847 328.967 178.006C332.256 184.854 339.262 190.078 347.252 189.811C356.192 189.513 362.701 182.55 365.669 174.75C370.629 161.706 365.428 144.576 354.823 139.168C338.916 133.76 330.214 140.375 327.081 150.873Z" fill="black"/>
<circle cx="330.753" cy="174.046" r="5.25825" fill="white"/>
</svg>
