<svg width="44" height="47" viewBox="0 0 44 47" fill="none" xmlns="http://www.w3.org/2000/svg">
<path d="M38.7717 43.2769C38.1101 41.9417 35.7818 42.2498 34.7004 42.5708C33.1737 45.267 34.7004 45.1386 34.7004 45.267C34.7004 45.3953 39.5986 44.946 38.7717 43.2769Z" fill="#C6D960"/>
<path d="M32.2831 36.2798C33.0889 37.0287 34.7004 39.3354 34.7004 42.5708M34.7004 42.5708C35.7818 42.2498 38.1101 41.9417 38.7717 43.2769C39.5986 44.946 34.7004 45.3953 34.7004 45.267C34.7004 45.1386 33.1737 45.267 34.7004 42.5708Z" stroke="black" stroke-width="0.8"/>
<path d="M22.4885 43.6234C21.8269 42.2881 19.4986 42.5963 18.4172 42.9172C16.8905 45.6134 18.4172 45.485 18.4172 45.6134C18.4172 45.7418 23.3154 45.2924 22.4885 43.6234Z" fill="#C6D960"/>
<path d="M15.9999 36.6262C16.8057 37.3752 18.4172 39.6819 18.4172 42.9172M18.4172 42.9172C19.4986 42.5963 21.8269 42.2881 22.4885 43.6234C23.3154 45.2924 18.4172 45.7418 18.4172 45.6134C18.4172 45.485 16.8905 45.6134 18.4172 42.9172Z" stroke="black" stroke-width="0.8"/>
<path d="M1.2799 33.7014C1.14564 33.8603 1.00548 34.1314 1.00015 34.5149C0.996791 34.754 1.04893 34.9756 1.10976 35.1549C1.41585 36.0596 1.9291 36.2068 2.39217 36.2571C2.82329 36.3038 3.26674 36.314 3.67123 35.9233C3.81951 35.7797 3.97733 35.5238 3.99779 35.1163C4.01825 34.7132 3.89324 34.3589 3.76177 34.1387C3.55967 33.7998 3.32365 33.6226 3.08734 33.5096C2.54635 33.2501 1.79371 33.0927 1.2799 33.7014Z" fill="#D9ED45" stroke="black" stroke-width="0.8" stroke-linecap="round" stroke-linejoin="round"/>
<path d="M2.92749 32.8625C3.25274 30.8189 3.96217 28.8427 5.00335 27.0797" stroke="black" stroke-width="0.8" stroke-linecap="round" stroke-linejoin="round"/>
<path d="M24.0257 4.56113C24.0257 4.56113 18.0568 -1.37192 10.6199 2.71787C3.18291 6.80766 4.15285 14.662 7.65144 19.7672C7.65144 19.7672 1.47834 29.3123 10.1673 34.9142C18.8562 40.5161 25 35.7798 25 35.7798C25 35.7798 33.2467 39.5535 38.5131 35.3523C44.0074 30.969 44.3605 26.3278 40.0949 19.3662C40.0949 19.3662 46.1415 11.4233 39.4435 4.51195C32.7455 -2.39945 24.0257 4.56113 24.0257 4.56113Z" fill="#D9EA6F" stroke="#231815" stroke-linecap="round" stroke-linejoin="round"/>
<path d="M24 21.2798C24.1233 21.602 24.9551 23.2792 25.5 23.2798C26.1417 23.2804 27.4286 21.7798 28 21.2798" stroke="#231815" stroke-width="0.8" stroke-linecap="round" stroke-linejoin="round"/>
<path d="M18 22.7798C18 24.1605 16.8807 25.2798 15.5 25.2798C14.1193 25.2798 13 24.1605 13 22.7798C13 21.3991 14.1193 20.2798 15.5 20.2798C16.8807 20.2798 18 21.3991 18 22.7798Z" fill="#FFC9C9" fill-opacity="0.69"/>
<path d="M38 22.7798C38 24.1605 36.8807 25.2798 35.5 25.2798C34.1193 25.2798 33 24.1605 33 22.7798C33 21.3991 34.1193 20.2798 35.5 20.2798C36.8807 20.2798 38 21.3991 38 22.7798Z" fill="#FFC9C9" fill-opacity="0.69"/>
<path d="M19.7891 11.5398C20.4641 11.5398 21.1647 11.6583 21.8044 11.6583" stroke="black" stroke-linecap="round"/>
<path d="M29.4585 11.8286H31.5924" stroke="black" stroke-linecap="round"/>
<path d="M20.3423 14.3126C19.4674 14.243 18.5402 14.2783 17.7014 14.4738C16.6354 14.722 15.346 15.3179 15.0598 16.4138C14.714 17.7369 15.9274 18.8445 17.1634 19.177C17.6424 19.3058 18.1403 19.3581 18.6363 19.3986C20.2015 19.5258 22.8083 19.6628 23.6607 18.0635C24.317 16.8319 23.5229 15.3045 22.2737 14.7501C21.791 14.5359 21.251 14.4114 20.723 14.3502C20.5974 14.3359 20.4705 14.3228 20.3423 14.3126Z" fill="white"/>
<path d="M19.1508 15.5763C18.904 16.4037 18.9577 17.3805 19.3301 18.1563C19.6429 18.8075 20.3091 19.3042 21.0689 19.2789C21.9189 19.2505 22.5379 18.5884 22.8201 17.8467C23.2918 16.6064 22.7972 14.9775 21.7888 14.4632C20.2762 13.949 19.4488 14.578 19.1508 15.5763Z" fill="black"/>
<circle cx="19.5" cy="17.7798" r="0.5" fill="white"/>
<path d="M32.3423 14.3126C31.4674 14.243 30.5402 14.2783 29.7014 14.4738C28.6354 14.722 27.346 15.3179 27.0598 16.4138C26.714 17.7369 27.9274 18.8445 29.1634 19.177C29.6424 19.3058 30.1403 19.3581 30.6363 19.3986C32.2015 19.5258 34.8083 19.6628 35.6607 18.0635C36.317 16.8319 35.5229 15.3045 34.2737 14.7501C33.791 14.5359 33.251 14.4114 32.723 14.3502C32.5974 14.3359 32.4705 14.3228 32.3423 14.3126Z" fill="white"/>
<path d="M31.1508 15.5763C30.904 16.4037 30.9577 17.3805 31.3301 18.1563C31.6429 18.8075 32.3091 19.3042 33.0689 19.2789C33.9189 19.2505 34.5379 18.5884 34.8201 17.8467C35.2918 16.6064 34.7972 14.9775 33.7888 14.4632C32.2762 13.949 31.4488 14.578 31.1508 15.5763Z" fill="black"/>
<circle cx="31.5" cy="17.7798" r="0.5" fill="white"/>
</svg>
