<svg width="1440" height="1024" viewBox="0 0 1440 1024" fill="none" xmlns="http://www.w3.org/2000/svg">
<g clip-path="url(#clip0_110_1242)">
<rect width="1440" height="1024" fill="#35343C"/>
<path d="M164.068 273.648C164.068 273.648 161.386 251.857 139.455 248.61C117.525 245.362 110.158 264.645 109.077 280.917C109.077 280.917 77.5253 289.858 86.3155 315.426C95.1058 340.994 118.024 338.251 118.024 338.251C118.024 338.251 126.27 361.86 143.916 361.422C162.326 360.965 169.238 350.755 171.752 329.368C171.752 329.368 198.411 323.359 195.84 298.21C193.268 273.061 164.068 273.648 164.068 273.648Z" fill="#E9FF75"/>
<path d="M1340.84 129.589C1340.84 129.589 1293.79 135.274 1283.46 182.898C1273.13 230.523 1313.25 246.653 1347.91 249.109C1347.91 249.109 1362.18 317.715 1418.25 298.783C1474.32 279.852 1471.98 230.042 1471.98 230.042C1471.98 230.042 1523.77 212.282 1525.56 173.941C1527.42 133.941 1506.64 118.857 1461.26 113.256C1461.26 113.256 1452.51 55.2996 1398.3 60.7219C1344.08 66.1442 1340.84 129.589 1340.84 129.589Z" fill="#E9FF75"/>
<path d="M642.307 763.92C642.307 763.92 621.329 734.548 588.617 749.005C555.906 763.462 561.087 797.973 572.514 822.605C572.514 822.605 536.256 863.219 568.625 892.745C600.994 922.272 630.308 898.23 630.308 898.23C630.308 898.23 660.373 925.382 684.273 909.308C709.206 892.538 710.602 871.63 697.085 838.302C697.085 838.302 728.945 806.234 705.455 771.878C681.964 737.521 642.307 763.92 642.307 763.92Z" fill="#E9FF75"/>
<path d="M1219.44 560.168C1219.44 560.168 1212.02 577.498 1226.72 589.775C1241.42 602.053 1255.14 591.103 1262.94 579.551C1262.94 579.551 1289.95 587.143 1294.51 564.269C1299.06 541.394 1281.06 533.104 1281.06 533.104C1281.06 533.104 1285.17 511.925 1272.03 504.303C1258.32 496.352 1248.85 500.793 1237.79 515.484C1237.79 515.484 1215.63 507.926 1206.69 527.691C1197.75 547.455 1219.44 560.168 1219.44 560.168Z" fill="#E9FF75"/>
<path d="M184.605 426.297V497H169.957V426.297H184.605ZM255.504 426.297V497H242.809L211.754 452.078H211.168V497H196.52V426.297H209.41L240.27 471.219H240.953V426.297H255.504ZM292.32 497H267.418V426.297H292.613C313.902 426.297 326.891 439.578 326.891 461.551C326.891 483.719 313.902 497 292.32 497ZM282.066 484.402H291.734C305.211 484.402 312.242 477.371 312.242 461.551C312.242 445.828 305.211 438.895 291.832 438.895H282.066V484.402ZM352.184 426.297V497H337.535V426.297H352.184ZM364.098 497V426.297H411.559V438.406H378.746V455.594H409.117V467.703H378.746V484.891H411.656V497H364.098ZM431.188 488.406C426.598 488.406 422.887 484.695 422.984 480.203C422.887 475.711 426.598 472.098 431.188 472.098C435.484 472.098 439.293 475.711 439.293 480.203C439.293 484.695 435.484 488.406 431.188 488.406ZM431.188 451.199C426.598 451.199 422.887 447.488 422.984 442.996C422.887 438.504 426.598 434.891 431.188 434.891C435.484 434.891 439.293 438.504 439.293 442.996C439.293 447.488 435.484 451.199 431.188 451.199ZM451.207 497V426.297H478.941C495.055 426.297 504.234 435.379 504.234 449.344C504.234 459.012 499.791 466.043 491.734 469.461L506.773 497H490.562L477.086 471.902H465.855V497H451.207ZM465.855 459.988H476.207C484.898 459.988 489.098 456.375 489.098 449.344C489.098 442.215 484.898 438.309 476.207 438.309H465.855V459.988ZM579.137 461.648C579.137 484.695 564.781 497.977 546.129 497.977C527.281 497.977 513.023 484.598 513.023 461.648C513.023 438.602 527.281 425.32 546.129 425.32C564.781 425.32 579.137 438.602 579.137 461.648ZM564.195 461.648C564.195 446.512 557.066 438.309 546.129 438.309C535.191 438.309 527.965 446.512 527.965 461.648C527.965 476.785 535.191 484.988 546.129 484.988C557.066 484.988 564.195 476.785 564.195 461.648Z" fill="#E9FF75"/>
<path d="M170.381 534.98C170.363 537.424 171.664 540.236 174.301 541.449L173.053 543.207C171.269 542.39 169.994 540.755 169.291 538.83C168.57 540.948 167.261 542.741 165.406 543.611L164.105 541.836C166.777 540.588 168.113 537.617 168.131 534.98V533.996H164.738V532.168H173.598V533.996H170.381V534.98ZM177.096 530.621V536.721H179.451V538.602H177.096V546.617H174.846V530.621H177.096ZM193.444 530.639V539.551H191.194V530.639H193.444ZM188.293 531.342V536.105H183.09V537.424C185.762 537.415 187.643 537.371 189.805 537.002L190.086 538.795C187.625 539.217 185.481 539.27 182.299 539.27H180.893V534.4H186.061V533.135H180.875V531.342H188.293ZM184.971 540.219V541.59H191.211V540.219H193.444V546.441H182.739V540.219H184.971ZM184.971 544.648H191.211V543.33H184.971V544.648ZM208.895 531.307V533.064H204.483C204.747 534.383 206.399 535.719 209.563 536.07L208.737 537.828C205.74 537.494 203.736 536.246 202.901 534.594C202.057 536.237 200.071 537.494 197.083 537.828L196.274 536.07C199.438 535.719 201.073 534.365 201.337 533.064H196.96V531.307H208.895ZM210.249 538.584V540.377H204.22V543.137H202.005V540.377H195.606V538.584H210.249ZM208.632 544.543V546.336H197.329V541.713H199.561V544.543H208.632ZM224.593 530.621V546.652H222.325V530.621H224.593ZM214.24 531.887V535.789H217.685V531.887H219.9V542.908H211.99V531.887H214.24ZM214.24 541.098H217.685V537.529H214.24V541.098ZM235.896 532.291V534.049H232.662C232.679 535.692 233.892 537.362 236.459 538.021L235.422 539.744C233.602 539.287 232.319 538.276 231.59 536.967C230.895 538.461 229.612 539.63 227.722 540.166L226.668 538.426C229.234 537.696 230.412 535.868 230.429 534.049H227.213V532.291H230.429V530.551H232.697V532.291H235.896ZM240.256 530.621V540.289H238.023V536.703H235.422V534.91H238.023V530.621H240.256ZM234.789 540.553C238.199 540.57 240.291 541.643 240.308 543.559C240.291 545.492 238.199 546.617 234.789 546.617C231.396 546.617 229.287 545.492 229.287 543.559C229.287 541.643 231.396 540.57 234.789 540.553ZM234.789 542.275C232.662 542.275 231.519 542.697 231.519 543.559C231.519 544.438 232.662 544.912 234.789 544.912C236.951 544.912 238.076 544.438 238.076 543.559C238.076 542.697 236.951 542.275 234.789 542.275ZM255.83 530.639V542.398H253.598V537.16H249.625V535.402H253.598V534.172H249.625V532.414H253.598V530.639H255.83ZM256.217 544.543V546.336H245.195V541.344H247.445V544.543H256.217ZM245.459 531.641V538.479C247.419 538.461 249.247 538.329 251.242 537.969L251.471 539.779C249.08 540.236 246.918 540.324 244.527 540.324H243.244V531.641H245.459ZM265.217 530.85C268.891 530.85 271.018 531.816 271.036 533.574C271.018 535.35 268.891 536.316 265.217 536.316C261.526 536.316 259.381 535.35 259.381 533.574C259.381 531.816 261.526 530.85 265.217 530.85ZM265.217 532.484C262.862 532.484 261.719 532.871 261.737 533.574C261.719 534.365 262.862 534.664 265.217 534.664C267.59 534.664 268.715 534.365 268.715 533.574C268.715 532.871 267.59 532.484 265.217 532.484ZM272.512 537.072V538.848H257.922V537.072H272.512ZM270.737 539.779V543.857H261.825V544.824H271.159V546.512H259.628V542.293H268.522V541.414H259.61V539.779H270.737ZM282.884 531.289C285.328 531.271 287.103 532.66 287.103 534.682C287.103 536.686 285.328 538.092 282.884 538.074C280.441 538.092 278.665 536.686 278.683 534.682C278.665 532.66 280.441 531.271 282.884 531.289ZM282.884 533.082C281.689 533.082 280.845 533.662 280.845 534.682C280.845 535.684 281.689 536.264 282.884 536.246C284.115 536.264 284.976 535.684 284.976 534.682C284.976 533.662 284.115 533.082 282.884 533.082ZM291.146 530.639V546.617H288.931V530.639H291.146ZM277.699 539.059C280.529 539.059 284.554 538.988 287.964 538.479L288.105 540.131C286.787 540.395 285.433 540.562 284.097 540.658V546.143H281.865V540.799C280.458 540.86 279.131 540.869 277.98 540.887L277.699 539.059ZM305.93 530.639V535.543H308.092V537.371H305.93V542.574H303.68V530.639H305.93ZM302.73 532.309V534.084H293.238V532.309H296.877V530.604H299.109V532.309H302.73ZM297.984 534.646C300.305 534.646 301.922 535.895 301.922 537.74C301.922 539.586 300.305 540.799 297.984 540.799C295.646 540.799 294.012 539.586 294.012 537.74C294.012 535.895 295.646 534.646 297.984 534.646ZM297.984 536.352C296.912 536.369 296.191 536.861 296.209 537.74C296.191 538.619 296.912 539.094 297.984 539.094C299.057 539.094 299.795 538.619 299.795 537.74C299.795 536.861 299.057 536.369 297.984 536.352ZM306.51 544.543V546.336H295.558V541.66H297.791V544.543H306.51ZM177.957 560.621V570.113H175.725V566.334H173.229V564.523H175.725V560.621H177.957ZM172.49 570.465C175.9 570.482 177.992 571.607 178.01 573.559C177.992 575.492 175.9 576.635 172.49 576.635C169.08 576.635 166.988 575.492 166.988 573.559C166.988 571.607 169.08 570.482 172.49 570.465ZM172.49 572.188C170.363 572.188 169.221 572.627 169.221 573.559C169.221 574.473 170.363 574.93 172.49 574.93C174.617 574.93 175.777 574.473 175.777 573.559C175.777 572.627 174.617 572.188 172.49 572.188ZM173.703 561.588V563.381H170.521C170.574 565.244 171.699 567.125 174.195 567.951L173.088 569.709C171.321 569.138 170.108 567.978 169.414 566.527C168.702 568.162 167.428 569.48 165.529 570.131L164.369 568.355C166.997 567.477 168.175 565.385 168.236 563.381H165.02V561.588H173.703ZM185.094 564.277C185.094 565.859 186.008 567.441 188.03 568.109L187.028 569.797C185.613 569.296 184.646 568.373 184.075 567.23C183.512 568.487 182.537 569.498 181.069 570.043L180.049 568.391C182.053 567.635 182.967 565.982 182.967 564.277V564.189H180.489V562.432H182.967V560.779H185.094V562.432H187.555V564.189H185.094V564.277ZM193.795 560.639V570.412H191.668V566.457H190.385V570.377H188.276V560.885H190.385V564.646H191.668V560.639H193.795ZM193.795 571.098V576.617H191.563V572.908H182.739V571.098H193.795ZM201.671 561.676L197.557 576.916H195.325L199.421 561.676H201.671ZM208.527 564.98C208.527 567.564 209.845 570.324 212.534 571.449L211.322 573.207C209.432 572.407 208.131 570.816 207.419 568.865C206.69 570.983 205.363 572.741 203.482 573.611L202.199 571.836C204.853 570.658 206.224 567.688 206.224 564.98V563.996H202.831V562.168H211.867V563.996H208.527V564.98ZM215.716 560.621V576.617H213.449V560.621H215.716ZM231.449 560.639V572.715H229.199V571.449H226.14V569.92H229.199V560.639H231.449ZM231.801 574.543V576.336H219.883V571.555H222.115V569.428C220.682 569.489 219.32 569.498 218.107 569.498L217.843 567.723C220.779 567.705 224.734 567.67 228.109 567.248L228.232 568.848C226.967 569.059 225.657 569.208 224.365 569.305V572.346H222.115V574.543H231.801ZM223.047 561.184C225.367 561.166 227.037 562.344 227.037 564.049C227.037 565.754 225.367 566.861 223.047 566.861C220.674 566.861 219.021 565.754 219.021 564.049C219.021 562.344 220.656 561.166 223.047 561.184ZM223.047 562.818C221.904 562.818 221.131 563.258 221.148 564.049C221.131 564.822 221.904 565.244 223.047 565.244C224.119 565.244 224.892 564.822 224.91 564.049C224.892 563.258 224.119 562.818 223.047 562.818ZM239.36 564.242C239.342 567.107 240.572 570.008 243.139 571.238L241.785 573.031C240.071 572.188 238.92 570.605 238.252 568.672C237.558 570.746 236.319 572.442 234.508 573.33L233.119 571.52C235.826 570.271 237.11 567.213 237.11 564.242V561.852H239.36V564.242ZM246.092 560.621V566.791H248.447V568.689H246.092V576.617H243.842V560.621H246.092ZM253.51 561.307C255.558 561.289 257.184 562.458 257.624 564.172H260.296V560.621H262.528V569.217H260.296V565.965H257.641C257.219 567.723 255.576 568.918 253.51 568.918C251.049 568.918 249.239 567.318 249.256 565.086C249.239 562.889 251.049 561.289 253.51 561.307ZM253.51 563.17C252.262 563.152 251.366 563.891 251.383 565.086C251.366 566.281 252.262 567.037 253.51 567.037C254.723 567.037 255.602 566.281 255.602 565.086C255.602 563.891 254.723 563.152 253.51 563.17ZM254.073 569.92V571.467H260.296V569.92H262.528V576.441H251.858V569.92H254.073ZM254.073 574.631H260.296V573.189H254.073V574.631ZM281.759 561.482V562.906C281.742 564.585 281.742 566.404 281.232 568.971H283.376V570.781H279.931V576.617H277.681V570.781H274.359V576.617H272.109V570.781H268.787V568.971H279.035C279.219 568.136 279.342 567.371 279.439 566.668L270.246 567.143L269.982 565.209L279.58 564.945C279.597 564.348 279.606 563.785 279.615 563.24H270.492V561.482H281.759ZM290.478 562.221V568.285H286.963V571.01C288.518 570.992 289.995 570.922 291.656 570.605L291.85 572.434C289.758 572.82 287.965 572.855 285.943 572.873H284.818V566.51H288.316V563.996H284.801V562.221H290.478ZM298.195 560.621V576.617H296.068V560.621H298.195ZM294.873 560.92V575.844H292.781V567.898H291.146V566.088H292.781V560.92H294.873ZM313.33 560.621V576.652H311.063V560.621H313.33ZM304.647 561.746C307.055 561.746 308.848 563.961 308.848 567.441C308.848 570.957 307.055 573.154 304.647 573.154C302.186 573.154 300.393 570.957 300.41 567.441C300.393 563.961 302.186 561.746 304.647 561.746ZM304.647 563.768C303.399 563.768 302.573 565.068 302.573 567.441C302.573 569.832 303.399 571.115 304.647 571.115C305.86 571.115 306.686 569.832 306.686 567.441C306.686 565.068 305.86 563.768 304.647 563.768ZM324.141 561.729V563.521H318.639V564.77H323.667V566.51H318.639V567.793C321.452 567.793 323.236 567.758 325.266 567.424L325.495 569.182C323.21 569.551 321.188 569.604 317.76 569.586H316.389V561.729H324.141ZM328.905 560.639V570.324H326.655V560.639H328.905ZM323.456 570.535C326.831 570.535 328.975 571.66 328.993 573.576C328.975 575.51 326.831 576.617 323.456 576.617C320.028 576.617 317.954 575.51 317.954 573.576C317.954 571.66 320.028 570.535 323.456 570.535ZM323.456 572.275C321.311 572.275 320.186 572.715 320.186 573.576C320.186 574.455 321.311 574.912 323.456 574.912C325.583 574.912 326.743 574.455 326.743 573.576C326.743 572.715 325.583 572.275 323.456 572.275ZM341.298 564.242C341.298 567.248 342.511 570.166 345.183 571.326L343.812 573.119C342.037 572.249 340.85 570.658 340.191 568.689C339.488 570.781 338.257 572.495 336.429 573.4L335.023 571.572C337.765 570.342 339.013 567.248 339.031 564.242V561.852H341.298V564.242ZM348.752 560.621V576.652H346.537V567.459H343.39V565.648H346.537V560.621H348.752ZM364.221 560.621V576.652H361.953V560.621H364.221ZM353.867 561.887V565.789H357.313V561.887H359.527V572.908H351.617V561.887H353.867ZM353.867 571.098H357.313V567.529H353.867V571.098ZM374.821 562.73C374.821 565.068 376.895 567.582 380.516 568.197L379.532 570.061C376.746 569.507 374.671 567.942 373.643 565.877C372.58 567.925 370.505 569.498 367.737 570.061L366.77 568.197C370.321 567.564 372.413 565.051 372.43 562.73V561.57H374.821V562.73ZM381.043 572.803V574.648H366.401V572.803H381.043Z" fill="white"/>
</g>
<defs>
<clipPath id="clip0_110_1242">
<rect width="1440" height="1024" fill="white"/>
</clipPath>
</defs>
</svg>
