<svg width="83" height="25" viewBox="0 0 83 25" fill="none" xmlns="http://www.w3.org/2000/svg">
<path d="M16.836 16.97V0.537998H21.646V16.97H16.836ZM0.586 7.61C0.586 6.60467 0.768 5.69467 1.132 4.88C1.51333 4.06533 2.016 3.38067 2.64 2.826C3.28133 2.27133 4.02667 1.84667 4.876 1.552C5.74267 1.24 6.66133 1.084 7.632 1.084C8.60267 1.084 9.51267 1.24 10.362 1.552C11.2287 1.84667 11.974 2.27133 12.598 2.826C13.2393 3.38067 13.742 4.06533 14.106 4.88C14.4873 5.69467 14.678 6.60467 14.678 7.61C14.678 8.61533 14.4873 9.52533 14.106 10.34C13.742 11.1373 13.2393 11.8133 12.598 12.368C11.974 12.9227 11.2287 13.356 10.362 13.668C9.51267 13.9627 8.60267 14.11 7.632 14.11C6.66133 14.11 5.74267 13.9627 4.876 13.668C4.02667 13.356 3.28133 12.9227 2.64 12.368C2.016 11.8133 1.51333 11.1373 1.132 10.34C0.768 9.52533 0.586 8.61533 0.586 7.61ZM4.382 24.12V16.112H9.322V19.778H15.666C16.758 19.778 17.7893 19.7433 18.76 19.674C19.748 19.5873 20.6233 19.3967 21.386 19.102L22.764 23.054C22.192 23.366 21.6027 23.6 20.996 23.756C20.4067 23.912 19.7827 24.016 19.124 24.068C18.4653 24.12 17.7633 24.1373 17.018 24.12C16.2727 24.12 15.4493 24.12 14.548 24.12H4.382ZM5.162 7.61C5.162 8.338 5.38733 8.92733 5.838 9.378C6.306 9.82867 6.904 10.054 7.632 10.054C8.36 10.054 8.958 9.82867 9.426 9.378C9.894 8.92733 10.128 8.338 10.128 7.61C10.128 6.86467 9.894 6.26667 9.426 5.816C8.958 5.36533 8.36 5.14 7.632 5.14C6.904 5.14 6.306 5.36533 5.838 5.816C5.38733 6.26667 5.162 6.86467 5.162 7.61ZM40.9431 23.938V17.698C40.1284 18.166 39.1837 18.582 38.1091 18.946C37.0344 19.31 35.8991 19.622 34.7031 19.882C33.5244 20.1247 32.3284 20.3153 31.1151 20.454C29.9017 20.5753 28.7577 20.636 27.6831 20.636H26.0971V2.176H37.7191V6.388H30.9851V15.618C31.6957 15.6007 32.5017 15.5227 33.4031 15.384C34.3044 15.2453 35.2057 15.0633 36.1071 14.838C37.0257 14.5953 37.9011 14.318 38.7331 14.006C39.5824 13.694 40.3191 13.356 40.9431 12.992V0.537998H45.8831V23.938H40.9431ZM50.5422 6.96C50.5422 6.18 50.8022 5.54733 51.3222 5.062C51.8595 4.57667 52.5355 4.334 53.3502 4.334C54.1648 4.334 54.8322 4.57667 55.3522 5.062C55.8895 5.54733 56.1582 6.18 56.1582 6.96C56.1582 7.74 55.8895 8.37267 55.3522 8.858C54.8322 9.34333 54.1648 9.586 53.3502 9.586C52.5355 9.586 51.8595 9.34333 51.3222 8.858C50.8022 8.37267 50.5422 7.74 50.5422 6.96ZM50.5422 18.192C50.5422 17.412 50.8022 16.7793 51.3222 16.294C51.8595 15.8087 52.5355 15.566 53.3502 15.566C54.1648 15.566 54.8322 15.8087 55.3522 16.294C55.8895 16.7793 56.1582 17.412 56.1582 18.192C56.1582 18.972 55.8895 19.6047 55.3522 20.09C54.8322 20.5753 54.1648 20.818 53.3502 20.818C52.5355 20.818 51.8595 20.5753 51.3222 20.09C50.8022 19.6047 50.5422 18.972 50.5422 18.192ZM59.3271 17.724H67.8031V15.852H61.9531V6.57H74.1211V5.478H61.9531V1.422H79.0611V10.548H66.8931V11.796H79.5811V15.852H72.7431V17.724H75.2131C76.3051 17.724 77.3364 17.6893 78.3071 17.62C79.2951 17.5333 80.1704 17.3427 80.9331 17.048L82.3111 20.948C81.7391 21.26 81.1498 21.494 80.5431 21.65C79.9538 21.806 79.3298 21.91 78.6711 21.962C78.0124 22.014 77.3104 22.0313 76.5651 22.014C75.8198 22.014 74.9964 22.014 74.0951 22.014H59.3271V17.724Z" fill="#E9FF75"/>
</svg>
