<svg xmlns="http://www.w3.org/2000/svg" width="1800" height="1800" fill="none" viewBox="0 0 1800 1800"><path stroke="#000" stroke-linecap="round" stroke-linejoin="round" stroke-width="16.18" d="M759.845 1416s35 21.87 35 62.44c0 40.57-67.11 88.88-67.11 88.88"/><path fill="#E9FF75" stroke="#000" stroke-linecap="round" stroke-linejoin="round" stroke-width="16.18" d="M731.986 1564.93c-4.79 2.18-9.79 5.9-9.98 11.16-.12 3.28 1.74 6.32 3.91 8.78 10.92 12.41 29.23 14.43 45.75 15.12 15.38.64 31.2.78 45.63-4.58 5.29-1.97 10.919-5.48 11.65-11.07.73-5.53-3.73-10.39-8.42-13.41-7.21-4.65-15.63-7.08-24.06-8.63-19.3-3.56-46.15-5.72-64.48 2.63z"/><path stroke="#000" stroke-linecap="round" stroke-linejoin="round" stroke-width="16.18" d="M1105.54 1415.86s-35 21.87-35 62.44c0 40.57 67.11 88.88 67.11 88.88"/><path fill="#E9FF75" stroke="#231815" stroke-linecap="round" stroke-linejoin="round" stroke-width="16.18" d="M898.312 453.829s-190.639-179.46-429.249-54.72c-238.61 124.74-165 352.069-52.75 507.779 0 0-165.75 252.702 52.75 458.862 269.5 177.84 467.3 0 467.3 0s227.477 143.5 396.447 15.36c176.28-133.69 185-318.52 61.04-474.222 0 0 214.9-242.259 0-453.059-214.9-210.8-495.538 0-495.538 0z"/><path fill="#fff" d="M724.483 770.379c-26.41-2.13-54.4-1.051-79.72 4.929-32.18 7.59-71.1 25.821-79.74 59.341-10.44 40.47 26.19 74.35 63.5 84.52 14.46 3.94 29.49 5.54 44.46 6.78 47.25 3.89 125.94 8.08 151.67-40.84 19.81-37.67-4.16-84.39-41.87-101.35-14.57-6.55-30.87-10.36-46.81-12.23-3.79-.44-7.63-.83-11.5-1.14l.01-.01z"/><path fill="#231815" d="M628.529 821.337c-9.357 23.964-7.32 52.249 6.796 74.716 11.855 18.86 37.101 33.242 65.895 32.509 32.217-.821 55.677-19.994 66.37-41.474 17.877-35.921 6.671-85.471-34.278-110.011-40.299-24.149-93.49 15.35-104.783 44.26z"/><path fill="#fff" d="M1162.34 770.379c-26.41-2.13-54.4-1.051-79.72 4.929-32.18 7.59-71.1 25.821-79.74 59.341-10.438 40.47 26.19 74.35 63.5 84.52 14.46 3.94 29.49 5.54 44.46 6.78 47.25 3.89 125.94 8.08 151.67-40.84 19.81-37.67-4.16-84.39-41.87-101.35-14.57-6.55-30.87-10.36-46.81-12.23-3.79-.44-7.63-.83-11.5-1.14l.01-.01z"/><path fill="#231815" d="M1071.34 821.337c-9.05 23.964-7.08 52.249 6.58 74.716 11.46 18.86 35.88 33.242 63.74 32.509 31.16-.821 53.86-19.994 64.2-41.474 17.29-35.921 6.45-85.471-33.16-110.011-38.98-24.149-90.43 15.35-101.36 44.26z"/><path fill="#fff" d="M1111.81 889.089c0 7.455-6.04 13.5-13.5 13.5-7.45 0-13.5-6.045-13.5-13.5 0-7.456 6.05-13.5 13.5-13.5 7.46 0 13.5 6.044 13.5 13.5zm27-27c0 7.455-6.04 13.5-13.5 13.5-7.45 0-13.5-6.045-13.5-13.5 0-7.456 6.05-13.5 13.5-13.5 7.46 0 13.5 6.044 13.5 13.5z"/><path fill="#fff" stroke="#000" d="M670.312 889.089c0 7.179-5.82 13-13 13-7.179 0-13-5.821-13-13 0-7.18 5.821-13 13-13 7.18 0 13 5.82 13 13z"/><path fill="#fff" d="M697.812 858.089c0 7.455-6.044 13.5-13.5 13.5-7.455 0-13.5-6.045-13.5-13.5 0-7.456 6.045-13.5 13.5-13.5 7.456 0 13.5 6.044 13.5 13.5z"/><path fill="#FFC9C9" fill-opacity=".5" d="M622.812 1018.59c0 33.14-26.862 60-60 60-33.137 0-60-26.86-60-60 0-33.138 26.863-60.001 60-60.001 33.138 0 60 26.863 60 60.001zm710.998 0c0 33.14-26.86 60-60 60-33.13 0-60-26.86-60-60 0-33.138 26.87-60.001 60-60.001 33.14 0 60 26.863 60 60.001z"/><path stroke="#231815" stroke-linecap="round" stroke-linejoin="round" stroke-width="16.18" d="M683 690.25s54.18 19.3 89.06-6.68C806.94 657.6 807.68 619 807.68 619m348.16 71.25s-54.18 19.3-89.06-6.68c-34.88-25.97-35.62-64.57-35.62-64.57"/><path fill="#F1D4A9" d="M792 1018c18.8-53.2 92.167-62.167 126.5-60 45 0 89.5 11.5 130 60s-9.5 107-68 87.5-122.5 4-144 0-68-21-44.5-87.5z"/><path stroke="#000" stroke-linecap="round" stroke-linejoin="round" stroke-width="16.18" d="M284.588 815.971s-56.14 114.29 0 170.69c19.22 22.329 68.61 36.039 68.61 36.039"/><path fill="#E9FF75" stroke="#000" stroke-linecap="round" stroke-linejoin="round" stroke-width="16.18" d="M1134.13 1564.79c4.79 2.18 9.79 5.9 9.98 11.16.12 3.28-1.74 6.32-3.91 8.78-10.92 12.41-29.23 14.43-45.75 15.12-15.38.64-31.2.78-45.63-4.58-5.29-1.97-10.92-5.48-11.65-11.07-.73-5.53 3.73-10.39 8.42-13.41 7.21-4.65 15.63-7.08 24.06-8.63 19.3-3.56 46.15-5.72 64.48 2.63z"/><path fill="#CFF" stroke="#000" stroke-miterlimit="10" stroke-width="16.18" d="M1489.53 364.721c-7.71 2.27-12.47-4.51-11.47-10.72.42-2.61 1.46-5.27 1.79-6.05 7.56-17.84 14.2-33.45 24.55-49.54 13.92-21.63 29.12-40.95 54.67-49.09 12.12-3.86 25.6-2.99 36.75 3.24 9.98 5.57 15.84 15.84 17.09 27.08 2.11 19.03-9.91 33.49-25.34 42.87-16.38 9.95-34.31 17.32-51.9 24.82-7.64 3.26-15.53 6.29-23.2 9.2-7.67 2.91-15.23 5.93-22.94 8.2v-.01zm85.51 136.63c-7.04-3.87-5.58-12.03-.47-15.69 2.15-1.54 4.77-2.68 5.55-2.99 17.99-7.21 33.74-13.49 52.45-17.48 25.16-5.36 49.57-8.18 73.36 4.22 11.28 5.88 20.15 16.06 23.59 28.36 3.08 11.01-.08 22.4-7.18 31.21-12.02 14.91-30.76 16.56-48.27 12.22-18.6-4.61-36.46-12.15-54.18-19.35-7.7-3.13-15.4-6.59-22.87-9.99-7.47-3.39-14.94-6.63-21.99-10.5l.01-.01zM343.168 364.721c7.71 2.27 12.47-4.51 11.47-10.72-.42-2.61-1.46-5.27-1.79-6.05-7.56-17.84-14.2-33.45-24.55-49.54-13.92-21.63-29.12-40.95-54.67-49.09-12.12-3.86-25.6-2.99-36.75 3.24-9.98 5.57-15.84 15.84-17.09 27.08-2.11 19.03 9.91 33.49 25.34 42.87 16.38 9.95 34.31 17.32 51.9 24.82 7.64 3.26 15.53 6.29 23.2 9.2 7.67 2.91 15.23 5.93 22.94 8.2v-.01zm-85.511 136.63c7.04-3.87 5.58-12.03.47-15.69-2.15-1.54-4.77-2.68-5.55-2.99-17.99-7.21-33.74-13.49-52.45-17.48-25.16-5.36-49.57-8.18-73.36 4.22-11.28 5.88-20.15 16.06-23.59 28.36-3.08 11.01.08 22.4 7.18 31.21 12.02 14.91 30.76 16.56 48.27 12.22 18.6-4.61 36.46-12.15 54.18-19.35 7.7-3.13 15.4-6.59 22.87-9.99 7.47-3.39 14.94-6.63 21.99-10.5l-.01-.01z"/><path stroke="#000" stroke-linecap="round" stroke-linejoin="round" stroke-width="16.18" d="M1342.94 1083.68s-1.19 115.33-103.75 183.08"/><path fill="#E9FF75" stroke="#000" stroke-linecap="round" stroke-linejoin="round" stroke-width="16.18" d="M1207.28 1331.84c22.29 0 40.37-18.07 40.37-40.37 0-22.29-18.08-40.37-40.37-40.37-22.3 0-40.37 18.08-40.37 40.37 0 22.3 18.07 40.37 40.37 40.37zM310.227 822.691c22.296 0 40.37-18.074 40.37-40.37 0-22.295-18.074-40.37-40.37-40.37-22.295 0-40.37 18.075-40.37 40.37 0 22.296 18.075 40.37 40.37 40.37z"/><path fill="#fff" d="M866.809 1007.13c-10.521-3.23-4.693-31.679-.309-44.63 19.691-6.723 70.5-9.5 97.5.223 3.653 13.623 6.71 37.537-11.703 44.407-23.016 8.57-72.336 4.03-85.488 0z"/></svg>