<svg width="1483" height="1271" viewBox="0 0 1483 1271" fill="none" xmlns="http://www.w3.org/2000/svg">
<path d="M1096 789.073C1121.43 813.919 1160.79 823.327 1194.66 812.654C1212.55 807.019 1228.41 796.445 1244 786" stroke="black" stroke-width="16.18" stroke-linecap="round" stroke-linejoin="round"/>
<path d="M51.5747 938C48.0094 902.075 61.348 865.909 82.8328 836.375C104.317 806.84 133.492 783.277 164.118 762.563C178.265 752.992 193.179 743.791 210 740" stroke="black" stroke-width="16.18" stroke-linecap="round" stroke-linejoin="round"/>
<path d="M645.112 255.101C645.112 255.101 501.02 106.653 321.49 208.982C141.96 311.31 130.934 516.766 215.391 644.5C215.391 644.5 100.811 874.387 310.565 1014.55C520.319 1154.71 668.631 1036.21 668.631 1036.21C668.631 1036.21 867.71 1130.63 994.843 1025.51C1127.48 915.838 1157.61 798.181 1054.64 624C1054.64 624 1178.99 426.796 1017.3 253.87C855.611 80.9439 645.112 255.101 645.112 255.101Z" fill="#E9FF75" stroke="#231815" stroke-width="20" stroke-linecap="round" stroke-linejoin="round"/>
<path d="M875.201 837.209L945.577 948.053L969.036 985.001" stroke="#E9FF75"/>
<path d="M330.67 298.102L421.196 391.929L451.371 423.204" stroke="#E9FF75"/>
<path d="M972.046 287.785L873.988 373.094L841.302 401.53" stroke="#E9FF75"/>
<path d="M468.533 842.391L390.583 947.65L364.599 982.736" stroke="#E9FF75"/>
<path d="M808.896 533.728C789.916 532.185 769.8 532.968 751.604 537.3C728.477 542.798 700.507 556.005 694.298 580.288C686.795 609.607 713.119 634.151 739.933 641.519C750.325 644.373 761.126 645.532 771.884 646.43C805.841 649.249 862.393 652.284 880.884 616.844C895.121 589.554 877.894 555.708 850.793 543.421C840.323 538.676 828.608 535.916 817.153 534.561C814.429 534.243 811.677 533.953 808.896 533.728Z" fill="white"/>
<path d="M757.11 562.82C750.383 581.851 751.847 604.317 761.996 622.16C770.52 637.138 788.673 648.561 809.376 647.979C832.541 647.326 849.409 632.098 857.097 615.04C869.951 586.512 856.474 549.047 828.996 537.219C787.778 525.393 765.23 539.86 757.11 562.82Z" fill="#231815"/>
<ellipse cx="825.553" cy="610.858" rx="12.0702" ry="12.5102" fill="white"/>
<ellipse cx="801.41" cy="585.837" rx="12.0702" ry="12.5102" fill="white"/>
<path d="M532.896 533.728C513.916 532.185 493.8 532.968 475.604 537.3C452.477 542.798 424.507 556.005 418.298 580.288C410.795 609.607 437.119 634.151 463.933 641.519C474.325 644.373 485.126 645.532 495.884 646.43C529.841 649.249 586.393 652.284 604.884 616.844C619.121 589.554 601.894 555.708 574.793 543.421C564.323 538.676 552.608 535.916 541.153 534.561C538.429 534.243 535.677 533.953 532.896 533.728Z" fill="white"/>
<path d="M479.186 562.82C472.335 581.851 473.826 604.317 484.162 622.16C492.842 637.138 511.327 648.561 532.411 647.979C556 647.326 573.178 632.098 581.008 615.04C594.097 586.512 580.373 549.047 552.39 537.219C510.416 525.393 487.454 539.86 479.186 562.82Z" fill="#231815"/>
<ellipse cx="550.012" cy="610.858" rx="12.0702" ry="12.5102" fill="white"/>
<ellipse cx="525.861" cy="585.837" rx="12.0702" ry="12.5102" fill="white"/>
<path d="M485 698C485 731.137 458.137 758 425 758C391.863 758 365 731.137 365 698C365 664.863 391.863 638 425 638C458.137 638 485 664.863 485 698Z" fill="#FFC9C9" fill-opacity="0.5"/>
<path d="M948 699C948 733.794 920.466 762 886.5 762C852.534 762 825 733.794 825 699C825 664.206 852.534 636 886.5 636C920.466 636 948 664.206 948 699Z" fill="#FFC9C9" fill-opacity="0.5"/>
<path d="M659 698C677.778 698 693 686.807 693 673C693 659.193 677.778 648 659 648C640.222 648 625 659.193 625 673C625 686.807 640.222 698 659 698Z" fill="white" stroke="#231815" stroke-width="16.18" stroke-linecap="round" stroke-linejoin="round"/>
<path d="M524.039 1227.53C528.829 1229.71 533.829 1233.43 534.019 1238.69C534.139 1241.97 532.279 1245.01 530.109 1247.47C519.189 1259.88 500.879 1261.9 484.359 1262.59C468.979 1263.23 453.159 1263.37 438.729 1258.01C433.439 1256.04 427.809 1252.53 427.079 1246.94C426.349 1241.41 430.809 1236.55 435.499 1233.53C442.709 1228.88 451.129 1226.45 459.559 1224.9C478.859 1221.34 505.709 1219.18 524.039 1227.53Z" fill="#D9ED45" stroke="black" stroke-width="16.18" stroke-linecap="round" stroke-linejoin="round"/>
<path d="M917.839 1227.53C913.049 1229.71 908.049 1233.43 907.859 1238.69C907.739 1241.97 909.599 1245.01 911.769 1247.47C922.689 1259.88 940.999 1261.9 957.519 1262.59C972.899 1263.23 988.719 1263.37 1003.15 1258.01C1008.44 1256.04 1014.07 1252.53 1014.8 1246.94C1015.53 1241.41 1011.07 1236.55 1006.38 1233.53C999.169 1228.88 990.749 1226.45 982.319 1224.9C963.019 1221.34 936.169 1219.18 917.839 1227.53Z" fill="#D9ED45" stroke="black" stroke-width="16.18" stroke-linecap="round" stroke-linejoin="round"/>
<path d="M475 1096C466.151 1136.14 460.46 1176.97 458 1218" stroke="black" stroke-width="16.18" stroke-linecap="round" stroke-linejoin="round"/>
<path d="M891 1083C904.338 1127.19 911.752 1173.02 913 1219" stroke="black" stroke-width="16.18" stroke-linecap="round" stroke-linejoin="round"/>
<path d="M89.4058 995.655C96.5591 972.554 85.2432 948.908 64.1311 942.841C43.019 936.774 20.1053 950.583 12.9521 973.684C5.79885 996.786 17.1148 1020.43 38.2269 1026.5C59.339 1032.57 82.2526 1018.76 89.4058 995.655Z" fill="#D9ED45" stroke="black" stroke-width="16.18" stroke-linecap="round" stroke-linejoin="round"/>
<path d="M1141.75 448.77C1141.54 439.151 1138.79 429.298 1130.82 423.675C1118.92 415.275 1108.09 412.898 1103.1 411.801C1101.54 411.461 1094.28 360.454 1093.45 356.889C1083.1 312.663 1067.55 269.603 1046.64 229.743C1002.01 144.681 935.585 83.2613 847.934 52.1274C776.953 26.9116 701.584 8.27974 626.709 9.02138C521.482 10.0657 410.186 38.2481 325.689 104.602C270.108 148.253 229.717 211.308 203.142 278.29C190.942 309.046 181.433 341.08 174.892 373.713C174.406 376.142 170.122 411.529 168.904 411.794C163.91 412.891 153.078 415.267 141.184 423.667C133.215 429.298 130.464 439.143 130.247 448.762C129.888 464.586 129.432 481.629 132.767 497.158C136.609 515.094 149.033 522.941 165.674 519.006C210.961 508.298 254.813 490.627 300.123 479.366C409.087 452.281 520.563 432.257 632.786 434.769V434.883C633.855 434.853 634.932 434.853 636.001 434.83C637.07 434.86 638.146 434.853 639.215 434.883V434.769C751.439 432.249 862.915 452.281 971.879 479.366C1017.19 490.627 1061.04 508.298 1106.33 519.006C1122.97 522.941 1135.39 515.094 1139.24 497.158C1142.56 481.629 1142.11 464.586 1141.75 448.762V448.77Z" fill="#FFF599" stroke="black" stroke-width="16.54" stroke-miterlimit="10"/>
<path d="M648 400C700.467 400 743 355.452 743 300.5C743 245.548 700.467 201 648 201C595.533 201 553 245.548 553 300.5C553 355.452 595.533 400 648 400Z" fill="white" stroke="black" stroke-width="16.18" stroke-miterlimit="10"/>
<path d="M643.702 367.624C635.546 367.624 628.905 360.673 628.905 352.136V320.682H599.384C590.935 320.682 584.059 313.484 584.059 304.641V296.373C584.059 287.529 590.935 280.332 599.384 280.332H628.905V248.878C628.905 240.341 635.539 233.39 643.702 233.39H652.658C660.814 233.39 667.454 240.341 667.454 248.878V280.332H696.976C705.425 280.332 712.301 287.529 712.301 296.373V304.641C712.301 313.484 705.425 320.682 696.976 320.682H667.454V352.136C667.454 360.673 660.821 367.624 652.658 367.624H643.702Z" fill="#A0E254"/>
<path d="M652.659 238.231C658.263 238.231 662.823 243.004 662.823 248.87V285.173H696.976C702.874 285.173 707.677 290.193 707.677 296.373V304.641C707.677 310.813 702.881 315.841 696.976 315.841H662.823V352.144C662.823 358.01 658.263 362.783 652.659 362.783H643.702C638.098 362.783 633.538 358.01 633.538 352.144V315.841H599.385C593.488 315.841 588.684 310.821 588.684 304.641V296.373C588.684 290.201 593.48 285.173 599.385 285.173H633.538V248.87C633.538 243.004 638.098 238.231 643.702 238.231H652.659ZM652.659 228.549H643.702C632.995 228.549 624.281 237.67 624.281 248.878V275.491H599.385C588.384 275.491 579.435 284.858 579.435 296.373V304.641C579.435 316.155 588.384 325.523 599.385 325.523H624.281V352.136C624.281 363.344 632.995 372.465 643.702 372.465H652.659C663.367 372.465 672.08 363.344 672.08 352.136V325.523H696.976C707.977 325.523 716.927 316.155 716.927 304.641V296.373C716.927 284.858 707.977 275.491 696.976 275.491H672.08V248.878C672.08 237.67 663.367 228.549 652.659 228.549Z" fill="black"/>
<path d="M1080 333C1080 333 965.108 274.089 809 268Z" fill="#FFF792"/>
<path d="M1080 333C1080 333 965.108 274.089 809 268" stroke="black" stroke-width="29.13" stroke-linecap="round" stroke-linejoin="round"/>
<path d="M1088 397C1088 397 973.532 338.089 818 332Z" fill="#FFF792"/>
<path d="M1088 397C1088 397 973.532 338.089 818 332" stroke="black" stroke-width="29.13" stroke-linecap="round" stroke-linejoin="round"/>
<path d="M201 311C201 311 315.468 260.246 471 255Z" fill="#FFF792"/>
<path d="M201 311C201 311 315.468 260.246 471 255" stroke="black" stroke-width="29.13" stroke-linecap="round" stroke-linejoin="round"/>
<path d="M180 393C180 393 294.892 334.089 451 328Z" fill="#FFF792"/>
<path d="M180 393C180 393 294.892 334.089 451 328" stroke="black" stroke-width="29.13" stroke-linecap="round" stroke-linejoin="round"/>
<path d="M1474 477.225C1474 369.407 1383.37 282 1271.58 282C1159.8 282 1069.17 369.407 1069.17 477.225C1069.17 576.286 1145.68 658.055 1244.81 670.694V861H1291.62V671.487C1394 661.782 1474 578.523 1474 477.218V477.225Z" fill="white" stroke="black" stroke-width="16.18" stroke-linecap="round" stroke-linejoin="round"/>
<path d="M1254.2 354.547L1144.79 537.353C1136.38 551.416 1146.9 569 1163.73 569H1382.55C1399.38 569 1409.91 551.416 1401.49 537.353L1292.08 354.547C1283.66 340.484 1262.61 340.484 1254.2 354.547H1254.2Z" fill="#FFFF20" stroke="#FE3131" stroke-width="22.66" stroke-linecap="round" stroke-linejoin="round"/>
<path d="M1272.8 520.057C1271.47 519.737 1270.21 520.817 1269.42 521.966C1267.84 524.271 1267.19 527.496 1268.54 529.945C1270.5 533.497 1276.45 533.215 1278.15 529.519C1279.84 525.822 1276.42 520.863 1272.51 521.281C1268.6 521.7 1266.21 527.191 1268.44 530.568C1270.48 533.656 1275.49 533.839 1277.73 530.911C1279.97 527.982 1278.68 522.947 1275.34 521.57C1271.99 520.194 1267.74 522.947 1267.45 526.682C1267.38 527.587 1267.52 528.53 1267.94 529.329C1268.88 531.093 1271.14 531.808 1273.01 531.238C1274.87 530.667 1276.3 529.04 1277.09 527.191" stroke="black" stroke-width="16.18" stroke-linecap="round" stroke-linejoin="round"/>
<path d="M1273.53 398C1272.28 426.99 1272.32 456.017 1273.66 485" stroke="black" stroke-width="25.18" stroke-linecap="round" stroke-linejoin="round"/>
<path d="M1274.5 794C1292.45 794 1307 779.449 1307 761.5C1307 743.551 1292.45 729 1274.5 729C1256.55 729 1242 743.551 1242 761.5C1242 779.449 1256.55 794 1274.5 794Z" fill="#D9ED45" stroke="black" stroke-width="16.18" stroke-linecap="round" stroke-linejoin="round"/>
<line x1="550.142" y1="499.695" x2="609.448" y2="523.462" stroke="black" stroke-width="12"/>
<line x1="754.896" y1="497.555" x2="696.112" y2="522.585" stroke="black" stroke-width="12"/>
</svg>
